<svg width="29" height="32" viewBox="0 0 29 32" fill="none" xmlns="http://www.w3.org/2000/svg">
<path d="M14.3912 0C12.4863 0.0247996 10.6681 0.785333 9.33122 2.1166C7.99431 3.44787 7.24649 5.24249 7.25 7.11111C7.14125 10.0267 6.90563 13.28 5.49188 15.2711C10.3494 18.1689 14.5 17.7778 14.5 17.7778C14.5 17.7778 18.6506 18.1689 23.5081 15.2711C21.9675 12.8356 21.6413 9.84889 21.75 7.11111C21.75 3.18222 18.5056 0 14.5 0H14.3912ZM8.80875 18.3467C3.625 19.4311 0 21.9556 0 24.8889V32H14.5L9.0625 24.8889H4.53125M14.5 32L17.7262 19.2178C17.7262 19.2178 16.3125 19.5556 14.5 19.5556C12.6875 19.5556 11.2738 19.2178 11.2738 19.2178M14.5 32H29V24.8889C29 21.9556 25.375 19.4311 20.1913 18.3467L24.4688 24.8889H19.9375L14.5 32Z" fill="#FF6452"/>
</svg>
