<svg width="100" height="80" viewBox="0 0 100 80" fill="none" xmlns="http://www.w3.org/2000/svg">
<path d="M50 40L12.7 25.1L15 80H5L7.4 22.95L0 20L50 0L100 20L50 40ZM50 15C47.25 15 45 16.1 45 17.5C45 18.9 47.25 20 50 20C52.75 20 55 18.9 55 17.5C55 16.1 52.75 15 50 15ZM50 45L77.85 33.85C81.4 38.55 83.85 44.2 84.65 50.35C83.15 50.15 81.6 50 80 50C67.25 50 56.1 56.85 50 67.05C46.9037 61.8538 42.5112 57.5506 37.2524 54.5619C31.9936 51.5731 26.0488 50.0012 20 50C18.4 50 16.85 50.15 15.35 50.35C16.15 44.2 18.6 38.55 22.15 33.85L50 45Z" fill="white"/>
</svg>
