<svg width="50" height="12" viewBox="0 0 50 12" fill="none" xmlns="http://www.w3.org/2000/svg">
<path d="M1.788 9.6H4.824C5.82 9.6 6.624 10.404 6.624 11.4H1.788C0.804 11.4 0 10.596 0 9.6V0.983999C0.984 0.983999 1.788 1.788 1.788 2.772V9.6ZM10.0617 9.612C10.6737 9.612 11.2017 9.396 11.6337 8.952C12.0657 8.52 12.2817 7.992 12.2817 7.38V5.016C12.2817 4.404 12.0657 3.876 11.6337 3.444C11.2017 3.012 10.6737 2.796 10.0617 2.796C9.44972 2.796 8.92172 3.012 8.48972 3.444C8.04572 3.876 7.82972 4.404 7.82972 5.016V7.38C7.82972 7.992 8.04572 8.52 8.48972 8.952C8.92172 9.396 9.44972 9.612 10.0617 9.612ZM6.04172 5.016C6.04172 3.9 6.43772 2.952 7.21772 2.172C7.99772 1.392 8.94572 0.995999 10.0617 0.995999C11.1777 0.995999 12.1257 1.392 12.9057 2.172C13.6857 2.952 14.0817 3.9 14.0817 5.016V7.38C14.0817 8.496 13.6857 9.444 12.9057 10.224C12.1257 11.004 11.1777 11.4 10.0617 11.4C8.94572 11.4 7.99772 11.004 7.21772 10.224C6.43772 9.444 6.04172 8.496 6.04172 7.38V5.016ZM22.5084 4.044C22.5084 4.884 22.1724 5.652 21.6204 6.204C22.1724 6.756 22.5084 7.512 22.5084 8.352V11.4C21.5124 11.4 20.7084 10.596 20.7084 9.612V8.352C20.7084 7.656 20.1564 7.092 19.4604 7.092H17.3124C16.8684 7.092 16.5084 7.464 16.5084 7.908V11.4C15.5124 11.4 14.7084 10.596 14.7084 9.612V7.752C14.7084 6.396 15.8004 5.304 17.1564 5.304H19.4604C20.1564 5.304 20.7084 4.74 20.7084 4.044C20.7084 3.348 20.1564 2.784 19.4604 2.784H16.5084C15.5124 2.784 14.7084 1.992 14.7084 0.995999H19.4604C21.1404 0.995999 22.5084 2.364 22.5084 4.044ZM33.6192 9.612H36.6432C37.6392 9.612 38.4432 10.416 38.4432 11.4H33.6192C32.6232 11.4 31.8192 10.596 31.8192 9.612V0.995999C32.8152 0.995999 33.6192 1.8 33.6192 2.796V9.612ZM49.1363 11.4C48.1403 11.4 47.3363 10.596 47.3363 9.6V0.995999C48.3323 0.995999 49.1363 1.8 49.1363 2.784V11.4Z" fill="black"/>
<path d="M31.222 2.784H25.21C24.718 2.784 24.298 2.604 23.95 2.256C23.602 1.908 23.422 1.488 23.422 0.995999H29.422C29.914 0.995999 30.346 1.164 30.694 1.512C31.042 1.86 31.222 2.292 31.222 2.784ZM31.222 11.4H23.422V7.416C23.422 6.744 23.662 6.168 24.142 5.688C24.61 5.208 25.186 4.968 25.87 4.968H28.858C29.35 4.968 29.782 5.148 30.13 5.496C30.478 5.844 30.646 6.276 30.646 6.768H26.026C25.798 6.768 25.606 6.852 25.45 7.008C25.294 7.164 25.21 7.356 25.21 7.584V9.6H29.422C29.914 9.6 30.346 9.78 30.694 10.128C31.042 10.476 31.222 10.908 31.222 11.4ZM46.6453 2.784H40.6333C40.1413 2.784 39.7213 2.604 39.3733 2.256C39.0253 1.908 38.8453 1.488 38.8453 0.995999H44.8453C45.3373 0.995999 45.7693 1.164 46.1173 1.512C46.4653 1.86 46.6453 2.292 46.6453 2.784ZM46.6453 11.4H38.8453V7.416C38.8453 6.744 39.0853 6.168 39.5653 5.688C40.0333 5.208 40.6093 4.968 41.2933 4.968H44.2813C44.7733 4.968 45.2053 5.148 45.5533 5.496C45.9013 5.844 46.0693 6.276 46.0693 6.768H41.4493C41.2213 6.768 41.0293 6.852 40.8733 7.008C40.7173 7.164 40.6333 7.356 40.6333 7.584V9.6H44.8453C45.3373 9.6 45.7693 9.78 46.1173 10.128C46.4653 10.476 46.6453 10.908 46.6453 11.4Z" fill="#FF6452"/>
</svg>
