<svg width="79" height="76" viewBox="0 0 79 76" fill="none" xmlns="http://www.w3.org/2000/svg">
<path d="M17.1917 43.75C14.1014 43.75 11.0805 44.6664 8.51094 46.3833C5.94142 48.1002 3.93873 50.5405 2.75611 53.3956C1.57349 56.2507 1.26406 59.3923 1.86695 62.4233C2.46985 65.4542 3.95799 68.2384 6.14318 70.4235C8.32838 72.6087 11.1125 74.0969 14.1434 74.6998C17.1744 75.3027 20.3161 74.9932 23.1712 73.8106C26.0262 72.628 28.4665 70.6253 30.1834 68.0558C31.9003 65.4863 32.8167 62.4653 32.8167 59.375C32.8167 57.3231 32.4126 55.2913 31.6273 53.3956C30.8421 51.4999 29.6912 49.7774 28.2403 48.3265C26.7894 46.8755 25.0669 45.7246 23.1712 44.9394C21.2754 44.1542 19.2436 43.75 17.1917 43.75ZM17.1917 65.625C15.9556 65.625 14.7472 65.2584 13.7194 64.5717C12.6916 63.8849 11.8905 62.9088 11.4175 61.7668C10.9444 60.6247 10.8207 59.3681 11.0618 58.1557C11.303 56.9433 11.8982 55.8297 12.7723 54.9556C13.6464 54.0815 14.76 53.4862 15.9724 53.2451C17.1848 53.0039 18.4415 53.1277 19.5835 53.6008C20.7255 54.0738 21.7016 54.8749 22.3884 55.9027C23.0752 56.9305 23.4417 58.1389 23.4417 59.375C23.4417 61.0326 22.7832 62.6223 21.6111 63.7944C20.439 64.9665 18.8493 65.625 17.1917 65.625ZM4.69172 37.5C3.76409 37.5007 2.85709 37.2262 2.08556 36.7112C1.31403 36.1962 0.712647 35.4638 0.357557 34.6068C0.00246736 33.7498 -0.0903668 32.8068 0.0908069 31.897C0.271981 30.9872 0.719015 30.1517 1.37532 29.4961L5.8636 25L1.37532 20.5039C0.494717 19.6233 0 18.429 0 17.1836C0 16.567 0.121456 15.9564 0.357433 15.3867C0.593411 14.817 0.939289 14.2993 1.37532 13.8633C1.81135 13.4273 2.32899 13.0814 2.89869 12.8454C3.46839 12.6094 4.07899 12.488 4.69563 12.488C5.94099 12.488 7.13534 12.9827 8.01594 13.8633L12.5042 18.3594L17.0003 13.8711C17.8809 12.9905 19.0753 12.4958 20.3206 12.4958C21.566 12.4958 22.7603 12.9905 23.6409 13.8711C24.5215 14.7517 25.0163 15.946 25.0163 17.1914C25.0163 18.4368 24.5215 19.6311 23.6409 20.5117L19.1448 25L23.6448 29.4961C24.5254 30.3767 25.0202 31.571 25.0202 32.8164C25.0202 34.0618 24.5254 35.2561 23.6448 36.1367C22.7642 37.0173 21.5699 37.512 20.3245 37.512C19.0792 37.512 17.8848 37.0173 17.0042 36.1367L12.5042 31.6406L8.00813 36.1289C7.57249 36.5641 7.05537 36.9091 6.48633 37.1444C5.91729 37.3796 5.30748 37.5005 4.69172 37.5ZM76.7581 66.9961C77.6387 67.8767 78.1335 69.071 78.1335 70.3164C78.1335 71.5618 77.6387 72.7561 76.7581 73.6367C75.8775 74.5173 74.6832 75.012 73.4378 75.012C72.1925 75.012 70.9981 74.5173 70.1175 73.6367L65.6292 69.1406L61.1331 73.6406C60.2525 74.5212 59.0582 75.0159 57.8128 75.0159C56.5675 75.0159 55.3731 74.5212 54.4925 73.6406C53.6119 72.76 53.1172 71.5657 53.1172 70.3203C53.1172 69.075 53.6119 67.8806 54.4925 67L58.9886 62.5L54.4886 58.0039C53.608 57.1233 53.1133 55.929 53.1133 54.6836C53.1133 53.4382 53.608 52.2439 54.4886 51.3633C55.3692 50.4827 56.5636 49.988 57.8089 49.988C59.0543 49.988 60.2486 50.4827 61.1292 51.3633L65.6292 55.8594L70.1253 51.3594C71.0059 50.4788 72.2003 49.9841 73.4456 49.9841C74.691 49.9841 75.8853 50.4788 76.7659 51.3594C77.6465 52.24 78.1413 53.4343 78.1413 54.6797C78.1413 55.925 77.6465 57.1194 76.7659 58L72.2699 62.5L76.7581 66.9961ZM59.805 30.8164C57.7698 39.8008 50.6917 47.8203 42.1917 50.8242C41.0195 51.2386 39.7306 51.1704 38.6087 50.6345C37.4868 50.0986 36.6237 49.139 36.2093 47.9668C35.7949 46.7946 35.8631 45.5057 36.399 44.3838C36.9349 43.2619 37.8945 42.3988 39.0667 41.9844C44.5628 40.0312 49.3284 34.5977 50.6566 28.7422C51.5824 24.6562 50.8128 20.6016 48.4378 16.8125V20.3281C48.4378 21.5713 47.944 22.7636 47.0649 23.6427C46.1858 24.5218 44.9935 25.0156 43.7503 25.0156C42.5071 25.0156 41.3148 24.5218 40.4358 23.6427C39.5567 22.7636 39.0628 21.5713 39.0628 20.3281V4.6875C39.0628 3.4443 39.5567 2.25201 40.4358 1.37294C41.3148 0.49386 42.5071 0 43.7503 0H59.3753C60.6185 2.61985e-08 61.8108 0.49386 62.6899 1.37294C63.569 2.25201 64.0628 3.4443 64.0628 4.6875C64.0628 5.9307 63.569 7.12299 62.6899 8.00206C61.8108 8.88114 60.6185 9.375 59.3753 9.375H54.6917C59.68 15.8633 61.4964 23.3438 59.805 30.8164Z" fill="white"/>
</svg>
