<svg width="73" height="80" viewBox="0 0 73 80" fill="none" xmlns="http://www.w3.org/2000/svg">
<path d="M29 29.2917C29 27.3578 29.7682 25.5031 31.1357 24.1357C32.5031 22.7682 34.3578 22 36.2917 22C38.2255 22 40.0802 22.7682 41.4477 24.1357C42.8151 25.5031 43.5833 27.3578 43.5833 29.2917C43.5833 31.2255 42.8151 33.0802 41.4477 34.4477C40.0802 35.8151 38.2255 36.5833 36.2917 36.5833C34.3578 36.5833 32.5031 35.8151 31.1357 34.4477C29.7682 33.0802 29 31.2255 29 29.2917Z" fill="white"/>
<path fill-rule="evenodd" clip-rule="evenodd" d="M7.29163 29.1571C7.29312 24.6362 8.34548 20.1777 10.3656 16.1333C12.3858 12.089 15.3184 8.56963 18.932 5.85308C22.5456 3.13652 26.7412 1.29715 31.1876 0.480194C35.6339 -0.336765 40.2093 -0.108948 44.5526 1.14566C48.8958 2.40026 52.8879 4.64731 56.2138 7.70939C59.5396 10.7715 62.1082 14.5648 63.7166 18.7898C65.325 23.0148 65.9292 27.5558 65.4816 32.0544C65.034 36.553 63.5468 40.886 61.1375 44.7112L72.5 64.3862C72.7996 64.9064 72.9431 65.5019 72.9133 66.1015C72.8834 66.7011 72.6815 67.2794 72.3316 67.7672C71.9818 68.2551 71.4988 68.6318 70.9405 68.8524C70.3822 69.0731 69.7721 69.1282 69.1833 69.0112L58.2833 66.8445L54.7083 77.3695C54.5154 77.9387 54.1626 78.4401 53.692 78.8138C53.2214 79.1875 52.6531 79.4176 52.055 79.4765C51.457 79.5354 50.8547 79.4207 50.3203 79.146C49.7858 78.8713 49.3419 78.4484 49.0416 77.9279L37.7083 58.2987C36.8753 58.3338 36.0413 58.3338 35.2083 58.2987L23.875 77.9279C23.5754 78.4486 23.1321 78.872 22.5982 79.1472C22.0642 79.4225 21.4622 79.5381 20.8643 79.48C20.2664 79.422 19.6978 79.1928 19.2268 78.82C18.7557 78.4472 18.4021 77.9465 18.2083 77.3779L14.6208 66.8779L3.72913 69.0154C3.14061 69.1313 2.53116 69.0755 1.97353 68.8545C1.41591 68.6334 0.933673 68.2566 0.584406 67.7689C0.235139 67.2813 0.0335981 66.7034 0.00384714 66.1043C-0.0259038 65.5052 0.117392 64.9102 0.416625 64.3904L11.7791 44.7112C8.83864 40.0569 7.28228 34.6624 7.29163 29.1571ZM15.9833 49.9279C19.4985 53.3993 23.8386 55.92 28.5958 57.2529L21.9 68.8487L19.65 62.2696C19.4053 61.5549 18.91 60.9531 18.2558 60.5755C17.6017 60.1978 16.8328 60.0699 16.0916 60.2154L9.27079 61.557L15.9833 49.9279ZM44.3208 57.2529L51.0083 68.832L53.2458 62.2446C53.4891 61.5267 53.9849 60.9217 54.6411 60.5423C55.2972 60.1629 56.0689 60.0348 56.8125 60.182L63.6375 61.5404L56.9333 49.9279C53.418 53.3992 49.0779 55.9198 44.3208 57.2529ZM36.4583 15.6154C32.8668 15.6154 29.4224 17.0421 26.8829 19.5816C24.3433 22.1212 22.9166 25.5656 22.9166 29.1571C22.9166 32.7485 24.3433 36.1929 26.8829 38.7325C29.4224 41.272 32.8668 42.6987 36.4583 42.6987C40.0498 42.6987 43.4941 41.272 46.0337 38.7325C48.5732 36.1929 50 32.7485 50 29.1571C50 25.5656 48.5732 22.1212 46.0337 19.5816C43.4941 17.0421 40.0498 15.6154 36.4583 15.6154Z" fill="white"/>
</svg>
